<svg width="101" height="36" viewBox="0 0 101 36" fill="none" xmlns="http://www.w3.org/2000/svg">
<path d="M46.8352 14.5433H42.8509C42.7372 13.8899 42.5277 13.3111 42.2223 12.8068C41.9169 12.2955 41.5369 11.8622 41.0824 11.5071C40.6278 11.152 40.1094 10.8857 39.527 10.7081C38.9517 10.5234 38.3303 10.4311 37.6626 10.4311C36.4766 10.4311 35.4254 10.7294 34.5092 11.326C33.593 11.9155 32.8757 12.782 32.3572 13.9254C31.8388 15.0618 31.5795 16.4503 31.5795 18.0909C31.5795 19.7599 31.8388 21.1662 32.3572 22.3097C32.8828 23.446 33.6001 24.3054 34.5092 24.8878C35.4254 25.4631 36.473 25.7507 37.652 25.7507C38.3054 25.7507 38.9162 25.6655 39.4844 25.495C40.0597 25.3175 40.5746 25.0582 41.0291 24.7173C41.4908 24.3764 41.8778 23.9574 42.1903 23.4602C42.5099 22.9631 42.7301 22.3949 42.8509 21.7557L46.8352 21.777C46.6861 22.8139 46.3629 23.7869 45.8658 24.696C45.3757 25.6051 44.733 26.4077 43.9375 27.1037C43.142 27.7926 42.2116 28.3324 41.1463 28.723C40.081 29.1065 38.8984 29.2983 37.5987 29.2983C35.6811 29.2983 33.9695 28.8544 32.4638 27.9666C30.9581 27.0788 29.772 25.7969 28.9055 24.1207C28.0391 22.4446 27.6058 20.4347 27.6058 18.0909C27.6058 15.7401 28.0426 13.7301 28.9162 12.0611C29.7898 10.3849 30.9794 9.10298 32.4851 8.2152C33.9908 7.32741 35.6953 6.88352 37.5987 6.88352C38.8132 6.88352 39.9425 7.05398 40.9865 7.39489C42.0305 7.7358 42.9609 8.23651 43.7777 8.89702C44.5945 9.55043 45.2656 10.353 45.7912 11.3047C46.3239 12.2493 46.6719 13.3288 46.8352 14.5433ZM54.1408 7.18182V29H50.2843V7.18182H54.1408ZM58.1065 29V12.6364H61.9631V29H58.1065ZM60.0455 10.3139C59.4347 10.3139 58.9091 10.1115 58.4688 9.70668C58.0284 9.29474 57.8082 8.80114 57.8082 8.22585C57.8082 7.64347 58.0284 7.14986 58.4688 6.74503C58.9091 6.3331 59.4347 6.12713 60.0455 6.12713C60.6634 6.12713 61.1889 6.3331 61.6222 6.74503C62.0625 7.14986 62.2827 7.64347 62.2827 8.22585C62.2827 8.80114 62.0625 9.29474 61.6222 9.70668C61.1889 10.1115 60.6634 10.3139 60.0455 10.3139ZM69.4444 23.8651L69.4338 19.2095H70.0517L75.9324 12.6364H80.4387L73.2051 20.6903H72.4061L69.4444 23.8651ZM65.9288 29V7.18182H69.7853V29H65.9288ZM76.1987 29L70.872 21.5533L73.4714 18.8366L80.8116 29H76.1987ZM83.0089 29V12.6364H86.8654V29H83.0089ZM84.9478 10.3139C84.337 10.3139 83.8114 10.1115 83.3711 9.70668C82.9308 9.29474 82.7106 8.80114 82.7106 8.22585C82.7106 7.64347 82.9308 7.14986 83.3711 6.74503C83.8114 6.3331 84.337 6.12713 84.9478 6.12713C85.5657 6.12713 86.0913 6.3331 86.5245 6.74503C86.9648 7.14986 87.185 7.64347 87.185 8.22585C87.185 8.80114 86.9648 9.29474 86.5245 9.70668C86.0913 10.1115 85.5657 10.3139 84.9478 10.3139ZM99.0023 12.6364V15.6193H89.5953V12.6364H99.0023ZM91.9178 8.71591H95.7743V24.0781C95.7743 24.5966 95.8525 24.9943 96.0087 25.2713C96.1721 25.5412 96.3851 25.7259 96.6479 25.8253C96.9107 25.9247 97.2019 25.9744 97.5215 25.9744C97.763 25.9744 97.9831 25.9567 98.182 25.9212C98.388 25.8857 98.5442 25.8537 98.6507 25.8253L99.3006 28.8402C99.0946 28.9112 98.7999 28.9893 98.4164 29.0746C98.04 29.1598 97.5783 29.2095 97.0314 29.2237C96.0655 29.2521 95.1955 29.1065 94.4213 28.7869C93.6472 28.4602 93.0328 27.956 92.5783 27.2741C92.1309 26.5923 91.9107 25.7401 91.9178 24.7173V8.71591Z" fill="black"/>
<path d="M22.8399 7.82004C23.0537 6.27444 21.3964 5.15907 20.0451 5.93924L1.63249 16.5697C0.0929173 17.4586 0.539305 19.791 2.2983 20.0487L10.6553 21.2729C11.2793 21.3645 11.8272 21.7363 12.1426 22.2824L16.4253 29.7004C17.3179 31.2465 19.6617 30.7883 19.9063 29.02L22.8399 7.82004Z" fill="#EA1919"/>
</svg>
